<?xml version="1.0" standalone="no"?>
<!DOCTYPE svg PUBLIC "-//W3C//DTD SVG 20010904//EN"
 "http://www.w3.org/TR/2001/REC-SVG-20010904/DTD/svg10.dtd">
<svg version="1.0" xmlns="http://www.w3.org/2000/svg"
 width="248.000000pt" height="248.000000pt" viewBox="0 0 248.000000 248.000000"
 preserveAspectRatio="xMidYMid meet">
<metadata>
Created by potrace 1.11, written by Peter Selinger 2001-2013
</metadata>
<g transform="translate(0.000000,248.000000) scale(0.100000,-0.100000)"
fill="#000000" stroke="none">
<path d="M286 1795 c-56 -14 -70 -26 -62 -52 6 -20 7 -20 63 -1 31 11 71 17
90 15 129 -18 123 -144 -14 -293 -21 -22 -77 -83 -125 -135 -47 -52 -111 -122
-142 -154 -30 -33 -56 -63 -56 -67 0 -5 110 -8 245 -8 l245 0 0 23 0 24 -194
-1 c-171 -1 -193 1 -183 14 14 18 7 9 127 140 171 185 216 242 235 297 30 86
-1 167 -74 197 -46 18 -87 18 -155 1z"/>
<path d="M917 1799 c-123 -30 -236 -135 -267 -250 -48 -176 50 -364 220 -424
332 -118 629 236 437 521 -39 59 -116 119 -180 140 -59 19 -158 26 -210 13z
m221 -69 c64 -28 140 -108 164 -173 24 -65 19 -168 -10 -228 -118 -243 -475
-238 -584 8 -23 52 -28 148 -10 209 25 85 112 169 207 201 58 19 169 11 233
-17z"/>
<path d="M1980 1803 c-50 -14 -90 -38 -85 -51 3 -7 5 -18 5 -22 0 -5 15 -3 34
5 82 35 170 23 197 -26 17 -33 13 -82 -11 -130 -18 -34 -142 -186 -184 -224
-16 -15 -199 -217 -215 -237 -13 -17 0 -18 233 -18 l246 0 0 23 0 24 -190 -1
c-105 -1 -190 1 -190 4 0 6 21 30 161 180 124 134 174 197 199 251 38 85 17
169 -52 205 -31 16 -115 26 -148 17z"/>
<path d="M1547 1783 c-3 -7 -1 -1085 2 -1105 2 -13 39 -9 43 5 3 9 2 943 -2
1085 0 15 -6 22 -19 22 -11 0 -22 -3 -24 -7z"/>
<path d="M2340 1771 c0 -24 14 -41 35 -41 l22 0 -1 -316 c-1 -174 1 -319 4
-322 3 -4 13 -8 23 -10 16 -3 17 19 17 348 l0 350 -50 0 c-27 0 -50 -4 -50 -9z"/>
<path d="M1226 971 c-3 -4 4 -7 14 -6 27 2 33 10 10 12 -11 1 -22 -2 -24 -6z"/>
<path d="M849 942 c-22 -19 -22 -20 -6 -45 13 -19 22 -24 39 -19 22 7 22 7 -4
10 -38 4 -36 22 2 22 35 0 38 10 11 34 -17 15 -20 15 -42 -2z m41 -12 c0 -5
-9 -10 -20 -10 -11 0 -20 5 -20 10 0 6 9 10 20 10 11 0 20 -4 20 -10z"/>
<path d="M921 911 c2 -43 2 -44 8 -12 4 21 13 37 26 41 17 6 16 7 -8 12 -26 5
-27 4 -26 -41z"/>
<path d="M1163 949 c-13 -5 -23 -13 -23 -19 0 -5 -4 -10 -10 -10 -5 0 -10 7
-10 15 0 11 -10 15 -32 14 -31 -2 -31 -2 -5 -6 15 -2 27 -9 27 -14 0 -6 -4 -8
-8 -5 -5 3 -19 -2 -32 -11 -21 -15 -21 -17 -6 -28 21 -16 66 -8 59 11 -3 8 -3
14 0 14 11 0 55 -49 49 -54 -3 -3 -1 -6 5 -6 6 0 13 9 16 19 3 15 -1 21 -17
23 -31 4 -28 40 4 48 14 3 20 9 15 12 -6 3 -20 2 -32 -3z m-53 -49 c0 -5 -9
-10 -20 -10 -11 0 -20 5 -20 10 0 6 9 10 20 10 11 0 20 -4 20 -10z"/>
<path d="M525 931 c-11 -37 17 -68 46 -50 11 7 9 9 -7 9 -43 0 -38 44 6 53 22
4 21 4 -7 6 -23 1 -33 -4 -38 -18z"/>
<path d="M601 928 c-13 -34 18 -65 48 -48 33 17 25 64 -12 68 -21 3 -29 -2
-36 -20z m54 -13 c0 -13 -8 -21 -22 -23 -17 -3 -23 2 -23 16 0 10 3 22 7 26
13 13 38 1 38 -19z"/>
<path d="M685 915 c3 -48 15 -57 15 -11 0 30 3 37 18 34 10 -2 17 -13 18 -26
1 -12 5 -26 8 -30 4 -4 6 9 4 28 -3 31 -7 35 -34 38 -31 3 -32 2 -29 -33z"/>
<path d="M766 942 c-7 -11 6 -27 27 -35 10 -4 16 -11 12 -16 -3 -6 -13 -7 -23
-4 -13 5 -14 3 -6 -6 9 -10 17 -10 35 -1 l23 13 -29 22 -28 23 24 5 c23 4 23
4 -3 6 -15 0 -29 -3 -32 -7z"/>
<path d="M980 946 c0 -19 25 -66 33 -63 13 4 40 67 29 67 -4 0 -13 -12 -19
-27 l-10 -28 -11 28 c-10 23 -22 36 -22 23z"/>
<path d="M1235 942 c25 -9 33 -52 10 -52 -11 0 -15 5 -11 15 3 9 0 15 -9 15
-8 0 -15 -6 -15 -14 0 -21 24 -36 47 -30 16 5 21 12 18 32 -2 15 -4 30 -4 35
-1 4 -13 7 -28 6 -23 -1 -25 -2 -8 -7z"/>
<path d="M1297 943 c-14 -14 -6 -53 13 -63 15 -8 24 -6 40 10 16 16 18 25 10
40 -10 19 -49 27 -63 13z m51 -31 c3 -16 -2 -22 -17 -22 -24 0 -35 15 -27 36
9 23 40 13 44 -14z"/>
<path d="M1017 804 c-13 -13 -8 -81 7 -93 9 -7 17 -8 20 -3 3 6 0 12 -8 15
-17 7 -10 47 8 47 8 0 8 2 0 8 -6 4 -13 13 -15 20 -3 7 -8 10 -12 6z"/>
<path d="M804 782 c-19 -3 -21 -8 -17 -40 6 -47 13 -54 13 -14 0 19 7 35 17
41 22 12 15 18 -13 13z"/>
<path d="M868 783 c-10 -3 -18 -8 -19 -11 0 -4 -2 -15 -4 -24 -5 -25 26 -47
50 -38 17 8 17 9 -7 9 -38 1 -35 19 3 23 31 3 31 3 13 24 -11 12 -27 19 -36
17z m32 -23 c0 -5 -9 -10 -20 -10 -11 0 -20 5 -20 10 0 6 9 10 20 10 11 0 20
-4 20 -10z"/>
<path d="M941 781 c-17 -11 -7 -41 14 -41 23 0 18 -18 -7 -23 -20 -4 -20 -4 4
-6 44 -2 46 26 3 44 -19 8 -19 9 3 12 12 3 20 9 17 14 -8 11 -16 11 -34 0z"/>
<path d="M1080 780 c-12 -8 -9 -10 13 -10 15 0 27 -4 27 -10 0 -5 -3 -9 -7 -9
-27 4 -43 -3 -43 -20 0 -21 26 -36 35 -20 4 5 11 7 16 4 5 -4 9 9 9 28 0 23
-6 37 -16 41 -19 7 -16 8 -34 -4z m35 -51 c-8 -12 -35 -12 -35 0 0 11 22 20
33 14 4 -2 5 -9 2 -14z"/>
<path d="M1231 746 l1 -41 9 32 c5 17 17 33 27 35 12 3 8 6 -10 10 -27 5 -28
4 -27 -36z"/>
<path d="M1313 779 c-29 -11 -31 -54 -3 -69 28 -15 65 22 50 50 -14 26 -21 29
-47 19z m35 -32 c4 -20 -25 -34 -40 -19 -15 15 -1 44 19 40 10 -2 19 -11 21
-21z"/>
<path d="M1151 749 c-1 -27 4 -38 17 -41 30 -8 42 3 42 40 0 19 -3 32 -7 28
-5 -4 -8 -18 -8 -29 0 -33 -29 -27 -36 8 -7 30 -7 30 -8 -6z"/>
</g>
</svg>
